<svg class="push-this tran-03s" width="17" height="12" viewBox="0 0 17 12" fill="none" xmlns="http://www.w3.org/2000/svg">
<mask id="mask0" mask-type="alpha" maskUnits="userSpaceOnUse" x="0" y="0" width="17" height="12">
<path d="M11.7955 11.3727C11.3456 11.7331 10.6819 11.7074 10.2626 11.2955L10.1839 11.2101C9.81699 10.7682 9.8432 10.1164 10.2626 9.7045L12.8892 7.125H1.14526C0.512642 7.125 -0.00019455 6.62132 -0.00019455 6C-0.00019455 5.37868 0.512642 4.875 1.14526 4.875H12.8892L10.2626 2.29549L10.1839 2.21005C9.81699 1.76818 9.8432 1.11638 10.2626 0.704504C10.7099 0.265164 11.4352 0.265164 11.8825 0.704504L16.4643 5.2045L16.5429 5.28995C16.9099 5.73182 16.8837 6.38361 16.4643 6.7955L11.8825 11.2955L11.7955 11.3727Z" fill="white"></path>
</mask>
<g mask="url(#mask0)">
<path d="M11.7955 11.3727C11.3456 11.7331 10.6819 11.7074 10.2626 11.2955L10.1839 11.2101C9.81699 10.7682 9.8432 10.1164 10.2626 9.7045L12.8892 7.125H3.43617C2.80355 7.125 2.29071 6.62132 2.29071 6C2.29071 5.37868 2.80355 4.875 3.43617 4.875H12.8892L10.2626 2.29549L10.1839 2.21005C9.81699 1.76818 9.8432 1.11638 10.2626 0.704504C10.7099 0.265164 11.4352 0.265164 11.8825 0.704504L16.4643 5.2045L16.5429 5.28995C16.9099 5.73182 16.8837 6.38361 16.4643 6.7955L11.8825 11.2955L11.7955 11.3727Z" fill="white"></path>
</g>
</svg>